<svg xmlns="http://www.w3.org/2000/svg" width="20" height="20" viewBox="0 0 20 20" fill="none">
<path d="M8.33333 17.9167C8.79357 17.9167 9.16667 17.5436 9.16667 17.0833C9.16667 16.6231 8.79357 16.25 8.33333 16.25C7.8731 16.25 7.5 16.6231 7.5 17.0833C7.5 17.5436 7.8731 17.9167 8.33333 17.9167Z" stroke="#02325C" style="stroke:#02325C;stroke:color(display-p3 0.0078 0.1961 0.3608);stroke-opacity:1;" stroke-width="1.5" stroke-linecap="round" stroke-linejoin="round"/>
<path d="M15.0013 17.9167C15.4615 17.9167 15.8346 17.5436 15.8346 17.0833C15.8346 16.6231 15.4615 16.25 15.0013 16.25C14.5411 16.25 14.168 16.6231 14.168 17.0833C14.168 17.5436 14.5411 17.9167 15.0013 17.9167Z" stroke="#02325C" style="stroke:#02325C;stroke:color(display-p3 0.0078 0.1961 0.3608);stroke-opacity:1;" stroke-width="1.5" stroke-linecap="round" stroke-linejoin="round"/>
<path d="M2.08203 2.0835H4.58203L6.83203 12.4168C6.90995 12.799 7.11941 13.1417 7.42394 13.3853C7.72847 13.6289 8.10879 13.758 8.4987 13.7502H14.8333C15.2232 13.758 15.6036 13.6289 15.9081 13.3853C16.2126 13.1417 16.4221 12.799 16.5 12.4168L17.9154 5.41683H5.91536" stroke="#02325C" style="stroke:#02325C;stroke:color(display-p3 0.0078 0.1961 0.3608);stroke-opacity:1;" stroke-width="1.5" stroke-linecap="round" stroke-linejoin="round"/>
</svg>